<svg width="128" height="40" viewBox="0 0 528 142" fill="none" xmlns="http://www.w3.org/2000/svg">
<rect width="528" height="142" fill="#030303"/>
<path d="M38.2188 92H30.4688L30.5312 87.0938H38.2188C40.9479 87.0938 43.1667 86.5729 44.875 85.5312C46.5833 84.4688 47.8438 82.9062 48.6562 80.8438C49.4688 78.7604 49.875 76.1875 49.875 73.125V65.3438C49.875 62.9271 49.6458 60.8438 49.1875 59.0938C48.7292 57.3438 48.0417 55.9062 47.125 54.7812C46.2083 53.6562 45.0521 52.8229 43.6562 52.2812C42.2604 51.7188 40.625 51.4375 38.75 51.4375H30.3125V46.5H38.75C41.3125 46.5 43.625 46.9062 45.6875 47.7188C47.75 48.5104 49.5208 49.7083 51 51.3125C52.4792 52.8958 53.6042 54.8646 54.375 57.2188C55.1667 59.5729 55.5625 62.3021 55.5625 65.4062V73.125C55.5625 76.2292 55.1667 78.9583 54.375 81.3125C53.6042 83.6667 52.4688 85.6354 50.9688 87.2188C49.4688 88.8021 47.6458 90 45.5 90.8125C43.375 91.6042 40.9479 92 38.2188 92ZM33.6562 46.5V92H27.9062V46.5H33.6562ZM94.2188 46.5V92H88.4375L70.2188 56.9062V92H64.4688V46.5H70.2188L88.5312 81.6875V46.5H94.2188ZM105.844 46.5L115.125 69.3438L124.438 46.5H130.938L118 75V92H112.25V75L99.3125 46.5H105.844ZM156.312 80.5C156.312 79.4375 156.188 78.5 155.938 77.6875C155.688 76.8542 155.25 76.1042 154.625 75.4375C154 74.7708 153.125 74.1354 152 73.5312C150.875 72.9271 149.448 72.3125 147.719 71.6875C145.844 71.0208 144.146 70.2812 142.625 69.4688C141.104 68.6354 139.802 67.6875 138.719 66.625C137.656 65.5625 136.833 64.3438 136.25 62.9688C135.667 61.5938 135.375 60.0208 135.375 58.25C135.375 56.4792 135.677 54.8438 136.281 53.3438C136.906 51.8438 137.781 50.5417 138.906 49.4375C140.052 48.3125 141.427 47.4375 143.031 46.8125C144.635 46.1875 146.427 45.875 148.406 45.875C151.365 45.875 153.854 46.5312 155.875 47.8438C157.917 49.1354 159.458 50.8333 160.5 52.9375C161.542 55.0208 162.062 57.25 162.062 59.625H156.312C156.312 57.9167 156.031 56.4062 155.469 55.0938C154.927 53.7604 154.073 52.7188 152.906 51.9688C151.76 51.1979 150.26 50.8125 148.406 50.8125C146.74 50.8125 145.365 51.1354 144.281 51.7812C143.219 52.4271 142.427 53.3021 141.906 54.4062C141.406 55.5104 141.156 56.7708 141.156 58.1875C141.156 59.1458 141.323 60.0208 141.656 60.8125C141.99 61.5833 142.5 62.3021 143.188 62.9688C143.896 63.6354 144.771 64.25 145.812 64.8125C146.875 65.375 148.125 65.9167 149.562 66.4375C151.792 67.1667 153.698 67.9792 155.281 68.875C156.865 69.7708 158.156 70.7812 159.156 71.9062C160.156 73.0104 160.885 74.2708 161.344 75.6875C161.823 77.0833 162.062 78.6667 162.062 80.4375C162.062 82.2917 161.75 83.9688 161.125 85.4688C160.521 86.9688 159.635 88.25 158.469 89.3125C157.302 90.375 155.896 91.1979 154.25 91.7812C152.604 92.3438 150.75 92.625 148.688 92.625C146.896 92.625 145.135 92.3333 143.406 91.75C141.698 91.1667 140.146 90.2917 138.75 89.125C137.354 87.9583 136.24 86.5208 135.406 84.8125C134.573 83.0833 134.156 81.0833 134.156 78.8125H139.906C139.906 80.375 140.135 81.7188 140.594 82.8438C141.052 83.9479 141.688 84.8646 142.5 85.5938C143.312 86.3229 144.24 86.8646 145.281 87.2188C146.344 87.5521 147.479 87.7188 148.688 87.7188C150.354 87.7188 151.75 87.4271 152.875 86.8438C154.021 86.2604 154.875 85.4271 155.438 84.3438C156.021 83.2604 156.312 81.9792 156.312 80.5ZM169.188 88.9375C169.188 87.9583 169.49 87.1354 170.094 86.4688C170.719 85.7812 171.615 85.4375 172.781 85.4375C173.948 85.4375 174.833 85.7812 175.438 86.4688C176.062 87.1354 176.375 87.9583 176.375 88.9375C176.375 89.8958 176.062 90.7083 175.438 91.375C174.833 92.0417 173.948 92.375 172.781 92.375C171.615 92.375 170.719 92.0417 170.094 91.375C169.49 90.7083 169.188 89.8958 169.188 88.9375ZM196.781 92H189.031L189.094 87.0938H196.781C199.51 87.0938 201.729 86.5729 203.438 85.5312C205.146 84.4688 206.406 82.9062 207.219 80.8438C208.031 78.7604 208.438 76.1875 208.438 73.125V65.3438C208.438 62.9271 208.208 60.8438 207.75 59.0938C207.292 57.3438 206.604 55.9062 205.688 54.7812C204.771 53.6562 203.615 52.8229 202.219 52.2812C200.823 51.7188 199.188 51.4375 197.312 51.4375H188.875V46.5H197.312C199.875 46.5 202.188 46.9062 204.25 47.7188C206.312 48.5104 208.083 49.7083 209.562 51.3125C211.042 52.8958 212.167 54.8646 212.938 57.2188C213.729 59.5729 214.125 62.3021 214.125 65.4062V73.125C214.125 76.2292 213.729 78.9583 212.938 81.3125C212.167 83.6667 211.031 85.6354 209.531 87.2188C208.031 88.8021 206.208 90 204.062 90.8125C201.938 91.6042 199.51 92 196.781 92ZM192.219 46.5V92H186.469V46.5H192.219ZM247.5 87.0938V92H227.75V87.0938H247.5ZM228.781 46.5V92H223.031V46.5H228.781ZM244.844 66.0625V70.9688H227.75V66.0625H244.844ZM247.188 46.5V51.4375H227.75V46.5H247.188ZM267.344 85.0938L278.281 46.5H284.531L270.406 92H266L267.344 85.0938ZM257.531 46.5L268.375 85.0938L269.812 92H265.406L251.281 46.5H257.531ZM305.438 46.5H318.156C321.115 46.5 323.594 47.0208 325.594 48.0625C327.615 49.1042 329.135 50.6458 330.156 52.6875C331.198 54.7083 331.719 57.1979 331.719 60.1562C331.719 62.2396 331.375 64.1458 330.688 65.875C330 67.5833 329 69.0417 327.688 70.25C326.375 71.4375 324.781 72.3229 322.906 72.9062L321.344 73.5625H310L309.938 68.6562H318.094C319.844 68.6562 321.302 68.2812 322.469 67.5312C323.635 66.7604 324.51 65.7292 325.094 64.4375C325.677 63.1458 325.969 61.7188 325.969 60.1562C325.969 58.4062 325.708 56.875 325.188 55.5625C324.667 54.25 323.833 53.2396 322.688 52.5312C321.562 51.8021 320.052 51.4375 318.156 51.4375H311.188V92H305.438V46.5ZM327.281 92L318.219 71.375L324.188 71.3438L333.438 91.625V92H327.281ZM360.812 46.5H366.562V78.5312C366.562 81.9479 365.906 84.6875 364.594 86.75C363.281 88.8125 361.552 90.3125 359.406 91.25C357.281 92.1667 354.99 92.625 352.531 92.625C349.906 92.625 347.542 92.1667 345.438 91.25C343.333 90.3125 341.656 88.8125 340.406 86.75C339.177 84.6875 338.562 81.9479 338.562 78.5312V46.5H344.281V78.5312C344.281 80.9062 344.615 82.7604 345.281 84.0938C345.969 85.4271 346.927 86.3646 348.156 86.9062C349.406 87.4479 350.865 87.7188 352.531 87.7188C354.219 87.7188 355.677 87.4479 356.906 86.9062C358.156 86.3646 359.115 85.4271 359.781 84.0938C360.469 82.7604 360.812 80.9062 360.812 78.5312V46.5ZM405.094 46.5V92H399.312L381.094 56.9062V92H375.344V46.5H381.094L399.406 81.6875V46.5H405.094Z" fill="white"/>
<line x1="439" y1="33" x2="439" y2="104" stroke="#FB7A7A" stroke-width="10"/>
<line x1="438.985" y1="31.9888" x2="481.985" y2="63.9888" stroke="#FB7A7A" stroke-width="10"/>
<line x1="438.489" y1="103.148" x2="481.571" y2="71.336" stroke="#FB7A7A" stroke-width="10"/>
</svg>
